<svg width="22" height="22" viewBox="0 0 22 22" fill="none" xmlns="http://www.w3.org/2000/svg">
<path d="M1.90705 5.75005C4.80705 0.728054 11.2281 -0.992946 16.2501 1.90705C18.2398 3.05573 19.798 4.82522 20.6858 6.9443C21.5735 9.06338 21.7419 11.4151 21.1651 13.6391C20.8471 14.8641 19.3551 15.2091 18.5071 14.3851L18.4121 14.2851L16.1611 11.6981C15.1581 10.5461 16.1851 8.80805 17.6391 9.07005L17.7721 9.10005L18.2901 9.23405C17.8996 7.62486 16.9876 6.1901 15.6963 5.15356C14.405 4.11702 12.8069 3.53698 11.1514 3.50389C9.49581 3.47081 7.87585 3.98654 6.54413 4.97066C5.21242 5.95478 4.24383 7.35195 3.78942 8.94426C3.33502 10.5366 3.42035 12.2345 4.03211 13.7732C4.64387 15.312 5.74766 16.605 7.17133 17.4506C8.59501 18.2963 10.2585 18.647 11.9024 18.4481C13.5463 18.2492 15.0782 17.5118 16.2591 16.3511C16.3995 16.2129 16.5658 16.1038 16.7484 16.0299C16.931 15.956 17.1264 15.9188 17.3234 15.9204C17.5204 15.9221 17.7152 15.9625 17.8966 16.0394C18.0779 16.1162 18.2424 16.2281 18.3806 16.3686C18.5187 16.509 18.6278 16.6753 18.7017 16.8579C18.7756 17.0405 18.8128 17.2359 18.8112 17.4329C18.8096 17.6299 18.7691 17.8247 18.6923 18.0061C18.6154 18.1874 18.5035 18.3519 18.3631 18.4901C15.0821 21.7181 9.93305 22.5081 5.75005 20.0931C0.728054 17.1931 -0.992946 10.7731 1.90705 5.75005ZM11.0001 4.50005C11.3728 4.50005 11.7322 4.63881 12.0082 4.8893C12.2842 5.1398 12.457 5.48407 12.4931 5.85505L12.5001 6.00005V10.3791L14.5601 12.4391C14.8332 12.7107 14.9913 13.0769 15.0018 13.462C15.0122 13.847 14.8741 14.2213 14.6162 14.5073C14.3582 14.7934 14 14.9692 13.6159 14.9983C13.2319 15.0275 12.8513 14.9078 12.5531 14.6641L12.4391 14.5611L9.93905 12.0611C9.69384 11.8158 9.54118 11.4932 9.50705 11.1481L9.50005 11.0001V6.00005C9.50005 5.60223 9.65809 5.2207 9.93939 4.93939C10.2207 4.65809 10.6022 4.50005 11.0001 4.50005Z" fill="#2B2B2B"/>
</svg>
