<svg width="60" height="60" viewBox="0 0 60 60" fill="none" xmlns="http://www.w3.org/2000/svg">
<path d="M27.9579 41.1125L27.4465 54.0559L27.3783 54.8297L13.0584 53.8097C12.2401 53.7393 11.4787 53.37 10.774 52.7018C10.0694 52.0335 9.53524 51.2656 9.17156 50.398C8.92153 49.7649 8.75674 49.12 8.67719 48.4635C8.59763 47.8069 8.64309 47.0449 8.81357 46.1773C8.98404 45.3097 9.12042 44.6649 9.22271 44.2428C9.32499 43.8208 9.56934 43.0704 9.95575 41.9918C10.3422 40.9132 10.5581 40.2918 10.6036 40.1277C12.3765 40.409 18.1613 40.7373 27.9579 41.1125ZM14.7631 20.5015L20.9003 33.8318L15.8883 30.596C14.4563 32.2842 13.1891 33.9784 12.0867 35.6784C10.9843 37.3784 10.1603 38.8439 9.6148 40.0749C9.06928 41.3059 8.62036 42.4139 8.26804 43.3987C7.91573 44.3835 7.70548 45.1221 7.63729 45.6145L7.50091 46.3532L1.02285 33.7967C0.636441 33.187 0.43187 32.5305 0.40914 31.827C0.38641 31.1236 0.4546 30.5725 0.613711 30.1739L0.886471 29.5408C1.68202 28.0636 2.97763 25.8594 4.7733 22.9284L0 19.9036L14.7631 20.5015ZM56.7341 38.6856L50.3243 51.3125C50.0515 51.9924 49.6367 52.5376 49.0798 52.948C48.5229 53.3583 48.0285 53.5986 47.5967 53.669L46.983 53.8097C45.3691 53.9738 42.8802 54.1145 39.5161 54.2317L39.7889 60L31.947 47.0918L39.1411 34.3594L39.3798 40.4442C43.2439 40.8194 46.4602 40.878 49.0287 40.6201C51.5971 40.3621 53.5292 39.9753 54.8248 39.4594L56.7341 38.6856ZM29.9695 6.18641C28.9012 7.66365 25.8895 12.7636 20.9343 21.4864L10.1262 14.9091L9.47842 14.4871L17.1498 1.96574C17.6044 1.23885 18.2863 0.711262 19.1955 0.382987C20.1047 0.0547125 21.0139 -0.0625285 21.9231 0.0312642C22.4686 0.0781606 23.0198 0.21885 23.5767 0.453332C24.1336 0.687813 24.6109 0.934019 25.0087 1.19195C25.4065 1.44988 25.8781 1.83677 26.4236 2.35263C26.9692 2.86849 27.3783 3.27298 27.6511 3.56608C27.9238 3.85918 28.333 4.32228 28.8785 4.95538C29.424 5.58848 29.7877 5.99883 29.9695 6.18641ZM52.3018 16.9843L59.5299 29.7518C59.9391 30.6194 60.0811 31.5105 59.9561 32.4249C59.8311 33.3394 59.5186 34.207 59.0185 35.0277C58.723 35.4966 58.348 35.9304 57.8934 36.3291C57.4388 36.7277 57.0069 37.056 56.5978 37.3139C56.1886 37.5718 55.6374 37.8297 54.9441 38.0877C54.2509 38.3456 53.7167 38.5332 53.3417 38.6504C52.9666 38.7677 52.3813 38.9318 51.5858 39.1428C50.7902 39.3539 50.2674 39.4946 50.0174 39.5649C49.2446 37.8766 46.2329 32.7649 40.9822 24.2298L51.654 17.3712L52.3018 16.9843ZM47.4262 9.03537L52.2677 6.11607L44.7668 19.2353L30.481 18.5319L35.6293 15.5071C34.8565 13.4202 34.0041 11.474 33.0722 9.66847C32.1402 7.86296 31.2822 6.41503 30.498 5.32469C29.7138 4.23435 28.9808 3.29642 28.2989 2.51091C27.617 1.7254 27.0828 1.18023 26.6964 0.875399L26.1168 0.418159L39.9253 0.453332C40.6299 0.382987 41.2891 0.50609 41.9028 0.822641C42.5165 1.13919 42.9597 1.47333 43.2325 1.82505L43.6075 2.35263C44.494 3.78297 45.7669 6.01055 47.4262 9.03537Z" fill="{iconColor}}"/>
</svg>
